#!OML:ASF I:\Actors\actors\Patient Classification 1\Patient 1\Session 1\Subject1.ASF
:FULLY-SPECIFIED
:DEGREES
583
root 0.653444 17.5708 8.43574 14.9203 23.1491 -8.96995
lowerback 4.4731 4.32564 4.33782
upperback -3.79578 6.13469 0.0409414
thorax -6.01391 2.85386 -2.9403
lowerneck -4.20508 -1.67701 6.61141
upperneck 50.1406 -4.25385 3.5748
head 20.8755 0.423372 0.103209
rclavicle 9.24349e-015 -2.3059e-014
rhumerus 32.9292 63.1064 -50.4573
rradius 41.6266
rwrist 13.6874
rhand 11.4824 -28.2199
rfingers 7.12502
rthumb 36.531 -54.4042
lclavicle 9.24349e-015 -2.3059e-014
lhumerus 12.8994 -70.4882 59.5352
lradius 43.4707
lwrist 20.1842
lhand -16.5629 -7.40172
lfingers 7.12502
lthumb 9.65711 22.3569
rfemur -4.92693 32.0094 21.6384
rtibia -1.38499
rfoot -41.845 -46.4003
rtoes 31.4656
lfemur -15.4526 -45.9011 3.21861
ltibia -5.97125
lfoot -4.80491 38.7252
ltoes -4.47019
584
root 0.650943 17.5732 8.43031 14.9754 23.1943 -9.05783
lowerback 4.638 4.18157 4.08308
upperback -3.82215 5.94197 0.198719
thorax -6.19239 2.7671 -2.63862
lowerneck -4.12339 -1.95309 5.95852
upperneck 50.4353 -4.93397 4.39272
head 21.1674 0.134922 0.553412
rclavicle 3.10104e-014 -1.98785e-015
rhumerus 33.5751 63.7332 -49.9532
rradius 41.5818
rwrist 13.3642
rhand 11.3918 -28.3688
rfingers 7.12502
rthumb 36.4452 -54.5747
lclavicle 3.10104e-014 -1.98785e-015
lhumerus 11.6389 -70.2067 60.6433
lradius 43.3799
lwrist 20.0678
lhand -16.4909 -7.53022
lfingers 7.12502
lthumb 9.72654 22.2252
rfemur -5.05478 32.3727 21.6645
rtibia -1.37275
rfoot -42.3008 -46.5995
rtoes 31.3559
lfemur -15.6589 -45.8367 3.48419
ltibia -5.99781
lfoot -4.59763 38.7136
ltoes -4.87827
585
root 0.648825 17.5745 8.428 15.0622 23.2091 -9.097
lowerback 3.69602 4.28138 3.37882
upperback -3.23983 5.98585 0.67523
thorax -5.1559 2.86384 -1.653
lowerneck -4.3597 -2.33059 5.21555
upperneck 50.1701 -5.62439 4.86958
head 21.0903 -0.229924 0.81159
rclavicle -1.80397e-014 -1.15295e-014
rhumerus 35.3396 63.7117 -47.6013
rradius 41.6242
rwrist 12.9926
rhand 11.3402 -28.3974
rfingers 7.12502
rthumb 36.3964 -54.6156
lclavicle -1.80397e-014 -1.15295e-014
lhumerus 13.0001 -69.7883 60.2361
lradius 43.005
lwrist 19.9983
lhand -16.4828 -7.67568
lfingers 7.12502
lthumb 9.73437 22.0794
rfemur -5.18733 32.5558 21.6309
rtibia -1.38687
rfoot -42.4064 -46.7628
rtoes 30.6173
lfemur -15.8313 -45.7627 3.6661
ltibia -6.01434
lfoot -4.62545 38.7002
ltoes -4.75285
586
root 0.64694 17.5748 8.42927 15.1538 23.1716 -9.10032
lowerback 3.7005 4.33742 3.33164
upperback -3.22177 6.0527 0.586133
thorax -5.1312 2.89762 -1.72269
lowerneck -4.44358 -2.59459 4.96824
upperneck 50.1147 -6.309 5.54052
head 21.1675 -0.469718 1.09507
rclavicle -4.01545e-014 -6.36111e-015
rhumerus 34.8341 63.7111 -48.2153
rradius 41.5671
rwrist 12.9438
rhand 11.3952 -28.3845
rfingers 7.12502
rthumb 36.4484 -54.5896
lclavicle -4.01545e-014 -6.36111e-015
lhumerus 13.0212 -69.9675 60.2583
lradius 42.7857
lwrist 19.8771
lhand -16.5108 -7.67233
lfingers 7.12502
lthumb 9.70733 22.084
rfemur -5.29001 32.5904 21.5671
rtibia -1.42111
rfoot -42.3597 -46.7575
rtoes 30.211
lfemur -15.8911 -45.6703 3.72828
ltibia -6.04593
lfoot -4.8595 38.6562
ltoes -4.28492
587
root 0.646005 17.5748 8.4312 15.2016 23.0976 -9.15119
lowerback 3.75672 4.47004 3.44954
upperback -3.25712 6.2304 0.379822
thorax -5.15645 2.97621 -2.01774
lowerneck -4.46121 -2.84558 4.88133
upperneck 49.9137 -7.03111 6.31399
head 21.1304 -0.688413 1.39042
rclavicle 7.45443e-015 -2.40529e-014
rhumerus 33.5723 63.4761 -49.6772
rradius 41.4001
rwrist 13.1178
rhand 11.4356 -28.4346
rfingers 7.12502
rthumb 36.4866 -54.6301
lclavicle 7.45443e-015 -2.40529e-014
lhumerus 13.3037 -70.4077 59.9381
lradius 42.6012
lwrist 19.6615
lhand -16.082 -7.50514
lfingers 7.12502
lthumb 10.1211 22.2314
rfemur -5.36928 32.6282 21.5634
rtibia -1.44061
rfoot -42.3091 -46.7102
rtoes 30.1375
lfemur -15.8665 -45.5494 3.77237
ltibia -6.10073
lfoot -5.01697 38.6247
ltoes -3.9159
588
root 0.646845 17.5742 8.43374 15.2495 23.0024 -9.16091
lowerback 3.87172 4.78844 3.79373
upperback -3.35024 6.66115 -0.108
thorax -5.20048 3.1651 -2.75083
lowerneck -4.43822 -3.21276 5.18687
upperneck 49.4849 -8.02161 7.17236
head 20.9271 -0.936029 1.60011
rclavicle -8.65707e-014 3.10104e-014
rhumerus 31.01 62.5915 -52.5013
rradius 41.0503
rwrist 13.5959
rhand 11.3965 -28.4156
rfingers 7.12502
rthumb 36.4496 -54.6204
lclavicle -8.65707e-014 3.10104e-014
lhumerus 15.0212 -71.5402 58.1439
lradius 42.4419
lwrist 19.6513
lhand -15.2253 -7.44768
lfingers 7.12502
lthumb 10.9474 22.2469
rfemur -5.43447 32.5882 21.5224
rtibia -1.46034
rfoot -42.0607 -46.7188
rtoes 29.9709
lfemur -15.7871 -45.4417 3.71329
ltibia -6.15638
lfoot -5.12301 38.6108
ltoes -3.54657
589
root 0.648083 17.5742 8.43693 15.3232 22.9206 -9.11194
lowerback 3.90532 4.90382 3.79825
upperback -3.36264 6.8071 -0.311479
thorax -5.19722 3.2333 -2.97575
lowerneck -4.47644 -3.30469 5.32884
upperneck 49.0721 -8.41481 7.70671
head 20.7001 -1.02288 1.76172
rclavicle -6.2816e-014 -3.57812e-014
rhumerus 30.1597 62.4117 -53.5071
rradius 40.8929
rwrist 13.7283
rhand 11.3668 -28.4216
rfingers 7.12502
rthumb 36.4215 -54.6334
lclavicle -6.2816e-014 -3.57812e-014
lhumerus 15.5211 -71.8462 57.6791
lradius 42.1608
lwrist 19.602
lhand -14.8847 -7.47786
lfingers 7.12502
lthumb 11.2759 22.1991
rfemur -5.50099 32.5011 21.4179
rtibia -1.48761
rfoot -41.8229 -46.7104
rtoes 30.1826
lfemur -15.7424 -45.3583 3.61665
ltibia -6.19687
lfoot -5.20838 38.5865
ltoes -3.36152
590
root 0.648364 17.5743 8.44019 15.3827 22.876 -9.13956
lowerback 3.83729 4.75599 3.53365
upperback -3.29497 6.59659 -0.126502
thorax -5.15297 3.14433 -2.61723
lowerneck -4.58816 -3.06719 5.08138
upperneck 48.8007 -8.14244 8.01519
head 20.5521 -0.944243 1.98923
rclavicle -3.28989e-014 -5.96354e-015
rhumerus 31.2348 63.1675 -52.5346
rradius 40.9137
rwrist 13.5237
rhand 11.2955 -28.399
rfingers 7.12502
rthumb 36.354 -54.6277
lclavicle -3.28989e-014 -5.96354e-015
lhumerus 13.9783 -71.0541 59.3718
lradius 41.7494
lwrist 19.2079
lhand -14.9542 -7.41015
lfingers 7.12502
lthumb 11.209 22.2704
rfemur -5.59305 32.4989 21.3905
rtibia -1.48923
rfoot -41.7985 -46.6707
rtoes 30.8346
lfemur -15.7783 -45.2641 3.67376
ltibia -6.22567
lfoot -5.3259 38.5633
ltoes -3.12492
591
root 0.647402 17.574 8.44409 15.3898 22.8569 -9.24129
lowerback 3.74215 4.57703 3.31589
upperback -3.21042 6.34933 0.121698
thorax -5.07696 3.03738 -2.21354
lowerneck -4.7547 -2.74971 4.81191
upperneck 48.6777 -7.72888 8.26678
head 20.5181 -0.810976 2.22521
rclavicle -2.31584e-014 -4.29375e-014
rhumerus 32.4794 63.9505 -51.4165
rradius 40.9224
rwrist 13.3682
rhand 11.3172 -28.2926
rfingers 7.12502
rthumb 36.3746 -54.5162
lclavicle -2.31584e-014 -4.29375e-014
lhumerus 12.3105 -70.036 61.2646
lradius 41.2856
lwrist 18.721
lhand -14.9389 -7.4982
lfingers 7.12502
lthumb 11.2237 22.1816
rfemur -5.64845 32.5872 21.4758
rtibia -1.47595
rfoot -41.8025 -46.7155
rtoes 31.1038
lfemur -15.8029 -45.1765 3.80989
ltibia -6.23905
lfoot -5.40607 38.5524
ltoes -2.91587
592
root 0.645316 17.5755 8.44896 15.3296 22.8152 -9.31107
lowerback 3.67783 4.30632 2.94167
upperback -3.0755 5.97651 0.506124
thorax -4.99807 2.87624 -1.57676
lowerneck -4.93486 -2.28132 4.52885
upperneck 48.7067 -6.9684 8.24255
head 20.5441 -0.57016 2.38789
rclavicle -2.21645e-014 -1.35174e-014
rhumerus 34.652 65.0352 -49.3018
rradius 41.0282
rwrist 13.1171
rhand 11.3757 -28.3279
rfingers 7.12502
rthumb 36.43 -54.5376
lclavicle -2.21645e-014 -1.35174e-014
lhumerus 10.4155 -68.6111 63.4368
lradius 40.808
lwrist 18.3005
lhand -14.876 -7.60392
lfingers 7.12502
lthumb 11.2844 22.0725
rfemur -5.60324 32.6006 21.5897
rtibia -1.46698
rfoot -41.652 -46.7467
rtoes 30.9581
lfemur -15.7065 -45.1129 3.824
ltibia -6.23852
lfoot -5.40026 38.5405
ltoes -3.02705
593
root 0.6434 17.5781 8.45475 15.2827 22.7348 -9.31003
lowerback 3.69409 4.26885 2.76634
upperback -3.01331 5.91709 0.565003
thorax -4.96814 2.85501 -1.41465
lowerneck -5.07384 -2.00236 4.59666
upperneck 48.6967 -6.61974 8.37273
head 20.5664 -0.404588 2.50055
rclavicle 8.2595e-014 -1.63003e-014
rhumerus 35.4366 65.4805 -48.5022
rradius 41.113
rwrist 13.0279
rhand 11.3529 -28.3575
rfingers 7.12502
rthumb 36.4084 -54.5726
lclavicle 8.2595e-014 -1.63003e-014
lhumerus 10.031 -68.168 63.9597
lradius 40.5949
lwrist 18.189
lhand -15.1679 -7.30477
lfingers 7.12502
lthumb 11.0028 22.3869
rfemur -5.55267 32.5023 21.6293
rtibia -1.454
rfoot -41.3982 -46.6694
rtoes 30.8356
lfemur -15.566 -45.0516 3.70788
ltibia -6.20929
lfoot -5.49068 38.5067
ltoes -2.99822
594
root 0.64229 17.5791 8.46157 15.2876 22.6844 -9.28445
lowerback 3.77026 4.69482 3.16002
upperback -3.1204 6.48748 -0.0255487
thorax -4.99007 3.11146 -2.28609
lowerneck -5.13964 -2.18144 5.44069
upperneck 48.561 -7.23834 8.80319
head 20.5617 -0.43326 2.46533
rclavicle -1.6201e-014 9.54166e-015
rhumerus 32.5523 64.4558 -51.3817
rradius 41.0167
rwrist 13.4274
rhand 11.452 -28.1214
rfingers 7.12502
rthumb 36.5022 -54.3129
lclavicle -1.6201e-014 9.54166e-015
lhumerus 12.3126 -69.7207 61.5836
lradius 40.7668
lwrist 18.5593
lhand -15.8401 -6.93231
lfingers 7.12502
lthumb 10.3544 22.7928
rfemur -5.52794 32.5123 21.6269
rtibia -1.4522
rfoot -41.384 -46.6353
rtoes 30.8603
lfemur -15.4798 -45.0023 3.59819
ltibia -6.18695
lfoot -5.62305 38.4646
ltoes -2.8773
595
root 0.6413 17.5795 8.46867 15.27 22.68 -9.27334
lowerback 3.74952 4.74965 3.14676
upperback -3.12886 6.5554 -0.107405
thorax -4.97512 3.1445 -2.36567
lowerneck -5.149 -1.98696 5.77459
upperneck 48.6118 -6.97419 8.74997
head 20.5736 -0.268162 2.42566
rclavicle 2.47487e-014 1.90833e-014
rhumerus 32.2884 64.4632 -51.6612
rradius 41.0871
rwrist 13.5808
rhand 11.6819 -27.8975
rfingers 7.12502
rthumb 36.7198 -54.0339
lclavicle 2.47487e-014 1.90833e-014
lhumerus 12.4827 -69.8014 61.4483
lradius 40.7537
lwrist 18.5936
lhand -16.2414 -6.92281
lfingers 7.12502
lthumb 9.96724 22.8212
rfemur -5.45935 32.5806 21.6688
rtibia -1.45115
rfoot -41.557 -46.6187
rtoes 31.0655
lfemur -15.3786 -45.0071 3.51778
ltibia -6.21691
lfoot -5.62926 38.4673
ltoes -3.00093
